P3
50 50
255
255 255 255	255 255 255	255 255 255	255 255 255	255 0 0	255 0 0	255 255 255	255 255 255	255 0 0	255 0 0	255 0 0	255 255 255	255 0 0	255 0 0	255 0 0	255 0 0	255 0 0	255 0 0	255 0 0	255 0 0	255 0 0	255 0 0	255 0 0	255 0 0	255 0 0	255 0 0	255 0 0	0 255 255	0 255 255	255 0 0	255 255 255	255 0 0	255 255 255	255 255 255	255 255 255	255 255 255	255 255 255	255 255 255	255 255 255	255 255 255	0 255 255	0 255 255	0 255 255	0 255 255	0 255 255	0 255 255	78 70 247	191 14 254	115 104 146	9 13 92	
211 189 254	255 255 255	255 255 255	128 21 21	82 194 0	157 4 137	60 93 230	72 53 125	197 87 23	28 107 82	0 159 163	183 55 162	161 93 211	217 4 197	96 86 27	251 10 238	50 249 126	154 137 2	113 203 151	48 82 234	55 89 126	12 87 191	177 192 99	48 150 75	227 176 30	90 141 57	93 200 176	235 231 78	37 73 70	184 163 138	70 216 229	78 40 188	123 138 173	81 203 125	165 103 142	85 226 137	206 71 98	197 197 198	244 108 198	255 255 255	255 255 255	255 255 255	102 149 30	215 136 81	106 242 222	36 183 229	12 138 44	166 63 254	55 220 195	197 57 20	
217 33 194	250 236 76	255 255 255	50 137 150	90 72 140	203 64 138	66 20 129	95 95 245	7 81 21	105 83 0	55 111 148	111 232 137	87 199 62	49 62 6	218 72 142	233 228 69	229 241 120	191 178 16	41 112 242	112 208 206	162 168 190	199 161 192	251 37 198	248 15 220	139 30 134	191 164 200	80 236 140	214 160 0	84 204 98	33 199 68	149 202 237	186 164 198	241 253 238	130 232 81	22 229 192	18 152 30	121 188 8	108 81 214	241 154 13	231 159 157	83 167 114	255 255 255	74 142 10	242 2 184	242 166 226	135 217 1	237 212 17	250 7 95	117 188 152	231 79 196	
192 77 166	111 136 190	109 34 31	255 255 255	51 98 196	243 35 133	234 243 64	83 210 245	54 55 226	93 96 41	245 65 152	10 55 77	233 251 31	171 18 224	95 32 40	47 62 150	173 222 68	220 127 73	227 136 156	148 20 195	209 33 125	1 68 103	38 233 143	144 125 227	146 89 79	238 62 105	229 138 18	178 240 136	235 35 125	222 98 252	176 82 192	9 59 248	252 106 246	65 71 61	116 73 152	20 117 215	230 234 92	100 200 68	64 253 60	38 237 109	108 173 247	5 249 243	158 109 92	183 201 152	152 151 237	15 248 21	205 181 154	84 0 237	18 61 180	246 35 150	
22 23 179	197 42 64	224 233 87	255 255 255	255 255 255	125 17 117	169 129 146	172 254 220	85 207 51	107 59 144	37 132 62	187 20 46	178 81 142	207 81 144	165 108 212	30 151 40	182 26 61	215 180 82	132 171 191	94 69 30	44 50 203	91 3 84	55 222 138	32 117 112	133 115 13	153 145 2	31 190 98	35 61 38	246 34 117	70 254 193	1 189 77	34 134 84	162 197 144	77 82 165	11 134 243	228 241 220	95 63 46	180 230 188	38 73 213	242 125 198	170 209 61	227 217 208	230 219 28	251 252 159	80 131 250	48 178 189	135 200 110	37 203 99	46 200 69	217 21 37	
46 227 99	232 221 107	184 37 3	186 182 232	255 255 255	78 117 250	129 67 225	53 233 241	72 15 7	116 109 166	149 162 155	188 239 60	169 231 198	112 203 50	171 201 247	118 213 72	10 13 150	28 12 12	40 203 134	39 139 73	48 40 143	240 53 105	250 221 210	240 103 77	188 162 93	207 219 252	99 110 75	130 22 89	145 105 29	12 239 108	239 234 172	92 44 217	130 175 180	157 33 159	185 126 91	36 212 78	215 78 176	244 5 184	65 71 69	212 77 55	200 93 216	222 220 171	54 121 176	47 214 102	166 242 151	234 239 60	72 34 19	167 60 124	55 39 120	106 205 210	
160 129 4	18 60 85	83 130 248	89 23 209	255 255 255	226 46 35	184 82 63	68 160 82	189 80 68	88 83 24	198 118 240	0 47 172	178 238 214	185 126 167	114 167 251	200 244 232	202 166 153	15 137 130	35 233 239	147 252 53	161 221 165	105 101 154	20 241 169	235 102 231	70 35 64	66 217 43	51 216 215	90 133 245	17 1 60	75 173 101	224 65 106	180 113 181	59 236 65	144 245 72	97 231 137	41 84 42	73 167 201	54 137 132	49 82 139	120 59 54	245 153 169	254 181 77	19 113 104	196 175 30	144 75 221	242 214 252	26 36 222	77 210 119	225 198 196	216 226 103	
202 148 206	242 10 174	223 225 10	123 39 140	214 27 38	255 255 255	255 255 255	232 50 75	17 24 102	113 217 222	34 54 165	142 40 144	149 92 46	5 75 173	185 52 252	181 106 229	98 190 223	51 146 239	207 89 100	141 128 165	127 206 110	90 236 21	228 206 128	238 34 251	166 113 192	36 138 211	50 236 48	233 150 122	199 51 177	89 145 174	230 94 74	34 59 101	151 77 243	12 37 77	243 105 217	54 154 77	195 1 147	52 2 202	71 63 245	98 181 86	10 186 165	22 83 43	158 183 33	132 194 123	205 67 179	114 17 78	151 72 77	2 227 219	140 109 174	30 217 10	
75 189 203	1 126 94	204 178 139	20 213 117	35 36 179	55 22 204	232 84 139	255 255 255	156 207 11	239 156 5	65 55 14	10 201 131	25 129 50	138 144 128	4 183 182	162 55 141	252 75 130	221 31 246	193 183 48	116 187 209	40 163 139	132 32 231	59 61 123	58 189 120	202 181 211	152 21 161	12 19 160	55 222 94	130 22 228	59 148 115	19 194 234	230 97 2	185 34 167	191 18 122	122 119 40	3 228 156	227 174 242	227 194 216	209 43 162	44 22 123	155 88 49	170 137 219	164 12 27	184 20 85	51 54 202	15 194 176	87 33 156	60 107 201	156 66 14	202 219 111	
48 225 84	229 74 116	30 187 181	177 41 12	181 60 124	200 116 227	231 201 13	192 1 152	255 255 255	217 76 146	12 141 176	39 226 73	3 142 15	26 163 100	63 81 14	141 186 227	187 246 127	130 32 205	63 24 221	180 41 209	60 8 27	101 55 230	171 35 96	88 131 155	104 65 148	48 150 207	216 225 29	199 94 126	45 194 188	217 190 37	111 139 103	112 177 248	12 31 79	130 99 92	176 32 138	151 111 226	83 185 129	30 107 101	55 65 192	127 103 69	192 83 215	115 23 144	50 28 202	215 64 157	134 148 132	112 244 154	32 139 101	30 14 27	174 7 160	203 108 200	
4 249 198	65 183 207	226 25 231	162 147 129	44 136 193	124 173 110	105 112 53	216 172 125	216 73 36	204 233 157	255 255 255	117 212 198	230 199 221	2 6 147	91 155 108	134 5 47	145 90 64	104 181 225	115 207 220	56 75 83	89 131 95	211 101 51	203 176 117	160 198 254	216 18 44	60 108 26	163 184 245	146 44 140	193 57 194	253 164 14	188 102 68	18 11 123	118 197 252	117 125 135	123 97 172	55 131 112	144 70 15	150 75 239	137 210 17	194 163 78	43 117 174	67 203 52	163 206 68	140 0 184	92 178 87	100 215 224	80 42 53	205 35 66	206 195 4	7 163 215	
8 182 200	6 166 137	150 123 130	56 22 163	233 6 103	138 155 17	159 84 70	194 71 202	128 251 19	140 21 66	132 230 31	1 45 191	120 230 112	70 252 33	48 70 11	16 210 12	132 67 6	201 99 145	233 78 49	77 2 119	243 154 206	161 210 124	118 226 178	252 99 105	147 28 222	93 72 151	30 143 134	148 0 9	224 14 137	235 225 41	72 125 70	254 53 57	16 68 88	204 171 85	188 243 211	201 72 130	125 87 127	35 217 199	186 226 62	115 93 100	165 98 55	31 67 199	114 141 118	150 172 65	251 2 127	91 173 68	64 29 43	230 240 218	4 157 39	135 237 218	
126 164 117	82 228 54	87 215 56	221 81 111	213 50 234	241 56 106	23 171 104	17 84 249	226 7 249	63 32 14	31 218 164	174 240 65	255 255 255	53 243 170	69 191 141	8 13 35	112 85 175	111 34 137	76 99 58	34 100 187	136 108 195	31 55 184	138 64 130	191 15 4	178 115 215	231 186 154	141 95 151	20 197 170	56 183 107	134 147 0	192 153 165	2 27 24	173 149 114	130 184 73	44 166 238	66 144 38	59 117 0	7 237 189	124 239 209	216 5 80	12 178 183	124 163 102	163 224 47	29 254 113	36 114 91	15 90 39	17 187 64	179 254 111	229 104 109	113 119 254	
150 132 137	94 78 97	251 55 34	1 79 92	186 201 3	244 152 69	22 233 10	198 78 125	251 139 13	168 244 217	43 134 10	151 104 76	23 162 12	255 255 255	6 209 142	120 123 10	6 144 228	193 152 197	10 206 202	54 179 88	160 213 117	9 246 61	215 51 145	62 22 243	9 168 74	166 99 10	145 46 160	1 233 4	253 242 253	174 250 98	99 13 114	121 18 118	207 249 203	94 134 6	196 131 222	71 123 157	131 210 35	97 117 125	207 10 189	13 201 64	155 193 108	40 114 157	60 213 167	110 222 25	31 198 199	210 141 249	46 53 212	70 119 143	61 109 43	46 128 142	
131 126 101	133 121 82	172 116 32	81 252 233	171 164 150	168 57 224	15 36 242	71 216 160	198 130 92	141 1 103	86 165 139	123 76 88	234 172 153	27 12 70	255 255 255	31 14 192	74 116 90	172 220 76	141 254 112	120 127 102	66 140 100	9 229 105	94 210 30	66 215 205	182 202 248	245 246 116	129 248 177	249 71 169	218 211 234	27 39 138	249 35 22	110 42 176	184 219 112	155 178 116	254 44 128	169 117 65	163 220 213	209 46 96	150 139 75	196 127 221	188 195 149	83 177 78	160 140 130	28 196 49	116 58 34	235 208 76	145 162 32	214 116 209	222 74 50	225 230 105	
171 226 34	103 33 113	11 105 46	136 50 32	73 211 245	168 9 230	127 79 147	98 69 166	23 128 189	14 165 23	47 204 66	39 252 253	220 98 21	132 41 180	247 106 37	255 255 255	208 150 88	212 104 27	199 54 95	186 23 47	255 255 255	138 134 210	17 56 150	16 42 27	235 172 116	122 253 115	162 174 21	207 241 224	23 47 17	39 207 54	114 201 144	69 65 82	75 116 83	23 248 167	228 234 138	132 195 72	43 236 174	237 233 118	162 88 218	111 204 12	163 4 119	201 210 139	33 210 52	24 186 57	48 185 9	81 39 119	148 103 199	6 104 129	221 169 84	2 97 237	
245 18 103	41 244 33	148 211 166	235 115 103	105 125 196	191 187 225	151 111 252	168 129 1	167 48 239	142 87 8	152 97 187	245 187 9	216 131 100	100 169 176	149 86 194	140 75 132	105 110 143	114 68 246	47 122 224	118 183 88	244 43 145	46 237 212	132 114 161	65 243 78	205 84 234	90 230 200	114 189 133	254 120 1	181 72 211	239 18 70	76 170 151	240 132 122	193 100 86	253 134 209	19 42 56	98 8 9	132 20 156	61 146 99	183 97 70	87 73 59	24 93 232	78 11 59	17 170 22	133 242 197	246 197 158	90 153 253	80 152 136	232 13 192	142 201 226	165 8 158	
194 164 28	201 61 164	205 41 28	202 6 140	111 29 193	150 88 140	56 181 76	72 128 121	48 198 132	229 220 201	6 252 67	43 123 211	82 68 7	11 112 225	59 175 103	170 161 91	255 255 255	174 127 115	173 59 88	188 110 177	255 255 255	52 83 4	99 60 59	127 33 188	187 171 10	143 141 30	229 142 147	61 190 97	97 109 8	0 184 156	233 96 93	219 11 185	44 98 64	36 48 22	131 117 227	184 86 43	61 202 46	38 2 20	223 123 101	206 120 229	241 217 183	136 248 189	75 126 235	137 6 128	245 89 62	117 22 218	164 92 194	179 151 30	51 67 252	84 13 235	
198 238 131	145 207 194	57 91 192	223 185 22	219 156 235	226 110 101	231 187 127	152 192 180	215 125 154	29 155 5	36 146 87	230 56 229	143 95 79	0 82 225	58 62 31	79 199 63	50 75 161	255 255 255	108 40 182	22 133 157	124 175 162	26 246 65	157 144 58	133 61 131	80 62 125	66 142 0	137 120 226	96 244 61	147 54 129	125 174 108	241 93 110	92 58 243	254 173 56	238 136 117	8 124 221	196 105 107	87 145 56	11 53 11	247 177 200	17 150 70	82 205 207	181 78 95	244 209 253	28 99 189	12 26 217	86 170 243	170 136 193	52 217 209	240 14 44	122 75 59	
116 104 186	59 66 145	22 10 90	94 198 151	109 9 70	166 196 58	242 251 5	58 214 85	201 166 151	41 21 169	81 180 117	6 202 205	108 1 75	124 17 87	161 204 61	189 166 244	62 170 232	255 255 255	255 255 255	112 130 238	9 109 23	239 172 233	213 17 65	109 111 208	51 184 94	222 54 188	198 122 111	27 38 184	30 11 147	220 155 115	199 15 33	56 169 160	87 5 84	187 63 193	215 72 107	163 178 48	35 28 42	54 140 171	8 233 13	34 106 196	59 212 250	55 14 131	150 39 230	58 252 139	216 182 229	243 187 131	167 53 81	153 25 226	110 110 116	236 12 48	
226 37 173	107 199 146	193 163 91	209 206 244	84 203 7	17 167 18	174 42 24	225 73 62	166 198 114	219 68 145	183 195 201	112 145 219	194 206 172	65 116 105	125 249 41	69 105 231	184 71 77	227 15 5	156 197 104	5 127 116	19 213 213	20 214 61	80 27 237	156 89 237	180 22 63	37 205 32	127 182 61	146 172 245	117 182 92	120 89 146	66 226 150	88 107 161	134 112 37	94 223 37	83 46 80	233 45 201	246 75 120	156 196 113	239 235 98	129 129 24	33 133 36	85 57 99	169 107 137	16 4 116	24 208 224	182 39 103	161 55 131	29 13 207	151 121 127	233 164 60	
85 61 124	245 18 16	31 28 231	191 211 72	79 31 12	92 100 43	197 247 78	28 100 249	207 70 182	215 102 75	41 39 133	50 246 90	192 13 18	63 131 82	107 38 140	41 43 179	121 172 173	107 26 84	193 138 67	164 151 13	207 149 102	86 70 83	85 149 235	218 161 142	85 77 42	60 113 6	120 145 77	214 110 20	200 184 190	177 100 7	105 186 69	216 254 110	142 227 147	104 167 21	166 60 107	150 152 77	173 66 115	196 31 193	210 218 154	247 25 178	248 141 8	111 84 11	47 0 188	175 185 0	156 46 6	42 217 59	193 174 220	29 93 113	250 68 250	135 141 189	
27 41 221	228 176 202	9 216 43	177 187 181	133 219 2	149 102 34	141 205 155	126 45 212	53 146 18	59 186 107	194 103 133	29 250 221	103 144 81	45 71 121	152 144 83	23 122 81	3 84 251	122 165 184	211 129 168	171 243 43	200 90 107	243 211 174	176 52 194	62 98 136	134 3 106	216 206 42	43 205 80	47 101 77	77 142 231	113 75 148	50 221 171	250 225 100	20 26 218	14 185 8	125 128 60	244 203 233	231 123 229	149 222 66	112 122 194	202 78 80	8 251 245	221 1 222	250 2 68	165 211 21	111 8 74	56 41 163	200 81 23	7 18 73	101 178 137	124 218 244	
157 201 15	23 13 221	88 36 143	82 167 210	167 205 237	92 126 248	39 249 192	242 86 46	76 202 65	33 189 15	89 95 114	124 108 47	2 170 57	54 58 92	115 5 197	181 251 149	118 98 213	9 214 213	18 164 120	137 35 232	97 218 167	30 158 111	245 240 201	35 67 106	142 172 93	247 142 249	110 247 84	39 97 11	136 140 160	178 84 113	136 112 2	71 162 224	135 85 74	53 205 241	11 212 170	149 241 30	111 58 171	130 63 8	87 201 59	162 201 61	76 198 17	62 115 71	229 41 103	236 225 99	107 68 69	200 130 143	201 21 116	29 133 60	179 144 132	52 71 206	
158 114 54	25 77 46	76 244 38	62 72 178	79 97 104	6 205 201	55 111 65	88 252 228	229 157 61	187 97 149	235 206 26	70 164 190	149 49 136	45 117 142	181 59 58	129 218 142	22 133 39	45 115 177	27 222 98	203 77 127	36 197 136	40 96 93	191 187 148	225 197 125	160 31 116	101 119 244	199 145 105	150 63 170	74 152 49	131 145 13	158 147 117	105 7 82	92 3 100	205 223 83	162 250 208	33 169 234	13 7 171	98 220 15	207 196 177	173 144 133	126 146 153	225 209 107	5 171 95	121 138 45	167 180 108	53 88 72	60 144 243	63 228 97	220 2 161	81 93 101	
211 55 175	56 9 155	20 143 85	13 201 18	225 186 53	114 17 76	142 47 91	133 45 234	77 80 27	131 174 0	172 223 25	121 249 206	101 242 43	5 100 138	231 241 139	114 44 73	2 251 152	38 195 163	160 135 42	102 161 84	20 70 81	246 95 35	234 167 67	230 184 167	136 225 229	27 4 163	226 202 65	61 141 132	74 202 217	64 97 158	237 23 247	196 60 179	245 40 35	235 172 159	122 8 80	29 240 127	84 46 42	225 177 109	209 177 81	92 41 239	113 84 6	44 248 159	80 197 80	102 111 234	167 46 249	199 188 41	170 77 192	215 231 150	66 76 148	156 32 200	
143 167 25	84 122 169	127 231 139	228 29 89	151 188 194	64 190 222	205 24 197	113 71 160	150 49 194	73 176 124	188 191 4	162 77 69	247 131 218	97 201 15	175 192 245	149 173 206	101 40 137	18 2 170	121 18 139	164 216 121	196 201 185	0 196 96	205 15 6	128 63 130	89 97 122	8 50 159	169 33 77	233 88 21	248 126 85	235 141 203	224 204 152	68 205 229	102 25 236	52 200 215	153 57 72	248 169 183	235 170 110	7 121 35	101 35 136	16 203 35	41 253 86	148 69 151	210 144 196	151 26 246	43 177 0	79 95 20	224 43 252	30 226 23	54 118 194	87 3 132	
13 201 151	33 254 24	168 16 72	142 193 238	153 152 198	208 245 179	57 118 79	4 235 7	25 106 61	183 111 64	215 184 87	60 121 113	208 77 90	11 226 61	69 153 234	198 16 194	29 30 27	183 157 181	161 5 21	238 63 56	206 52 129	60 68 0	176 130 198	232 205 199	210 136 173	185 117 213	247 143 131	97 199 161	218 224 35	82 54 49	89 143 243	204 170 140	32 191 127	62 171 162	100 207 175	72 210 67	54 60 184	74 135 158	116 41 98	113 39 23	132 14 74	177 37 35	156 15 75	107 12 10	159 111 106	103 29 175	244 45 25	57 155 235	117 41 102	219 26 164	
129 61 104	217 141 5	251 13 48	156 161 38	217 30 9	12 163 246	207 194 190	45 114 112	159 120 97	236 95 71	117 67 16	225 28 103	136 157 155	208 3 218	250 108 19	209 184 236	195 23 94	71 5 33	152 123 104	250 67 141	238 200 237	197 88 232	116 218 20	140 63 82	55 141 89	33 225 227	92 78 71	153 55 225	160 96 14	182 184 156	129 24 119	184 200 51	65 230 8	103 160 222	54 169 208	163 40 33	90 45 220	182 20 45	99 145 119	29 197 223	6 162 191	28 231 248	58 21 66	134 48 180	242 36 59	75 25 228	53 90 21	157 9 253	197 44 101	8 101 60	
49 34 205	200 0 251	165 216 155	131 106 31	66 47 173	194 181 97	26 204 219	35 120 32	0 88 244	118 74 130	151 215 92	21 26 236	67 228 147	123 229 209	76 91 82	210 76 191	16 64 61	19 53 120	112 45 87	32 218 37	222 84 145	8 136 80	175 46 197	177 118 127	207 39 67	223 234 198	188 176 216	113 65 3	96 64 58	62 105 129	133 187 24	192 82 159	68 64 222	84 85 42	0 56 126	227 123 129	176 25 233	166 217 179	23 230 96	52 204 171	24 226 247	102 199 15	175 29 232	252 242 217	14 41 116	252 215 217	100 5 79	86 102 252	156 196 42	250 235 85	
46 69 71	157 88 79	69 2 40	151 248 146	194 44 156	194 144 171	106 13 240	87 233 158	226 241 181	68 150 20	40 175 125	21 156 181	221 197 138	198 163 202	166 49 133	54 5 135	45 116 31	170 220 110	30 195 156	247 53 176	95 202 43	186 193 195	94 145 66	199 192 79	117 176 142	0 238 136	85 75 14	54 173 163	111 175 119	87 180 126	222 218 172	205 95 228	119 147 227	130 10 145	242 74 38	15 225 195	110 14 159	234 109 114	5 110 40	123 166 7	117 65 85	184 180 197	20 24 132	20 196 245	85 65 139	37 205 36	39 141 224	207 140 209	243 88 34	11 138 53	
233 18 49	238 68 16	191 211 191	123 214 82	34 229 179	95 102 51	237 249 74	82 99 168	24 108 57	31 136 102	201 45 166	232 66 88	153 118 63	140 68 28	189 46 15	152 85 150	124 161 91	124 201 196	30 182 80	59 149 108	152 153 137	84 144 115	197 210 180	64 109 148	140 227 237	211 62 245	62 216 25	234 58 185	40 172 216	18 56 55	243 38 10	93 97 224	26 6 254	225 32 93	56 3 171	247 144 98	92 175 27	105 77 113	32 239 13	18 210 189	187 39 66	174 115 207	63 219 91	40 131 111	214 86 53	34 254 78	82 232 25	252 109 18	240 114 190	158 212 2	
94 73 83	189 206 163	164 165 200	73 161 159	90 33 177	92 90 169	156 33 177	163 34 233	9 126 194	33 97 31	3 76 230	103 146 247	170 90 139	228 99 226	235 174 190	251 66 192	186 117 198	175 29 68	220 64 128	79 28 124	175 174 142	237 122 12	220 254 15	141 244 244	175 25 251	197 51 63	36 110 103	216 187 169	212 180 104	251 183 123	8 208 124	164 31 42	9 158 97	39 65 124	139 43 50	45 102 5	14 94 149	255 255 255	166 205 53	233 175 136	27 114 42	186 182 44	43 51 22	217 127 203	146 60 131	56 41 217	46 207 96	184 91 207	128 88 93	184 34 229	
197 25 243	30 105 244	52 115 41	117 67 5	18 198 168	238 141 58	46 158 112	43 75 204	160 211 34	88 228 239	36 240 107	52 193 240	147 58 226	9 162 251	16 205 81	51 171 88	194 159 17	103 194 69	20 127 137	108 135 125	225 233 79	191 131 57	117 148 159	91 119 160	8 106 0	216 187 144	174 138 38	71 93 233	9 38 134	171 134 129	115 32 20	63 2 33	86 121 158	144 197 128	163 238 137	173 144 152	23 213 214	140 77 216	57 13 199	2 223 114	214 69 159	49 83 21	233 27 28	164 175 94	159 50 141	239 13 94	202 224 239	147 30 19	148 202 10	2 101 154	
76 75 42	46 240 5	66 72 16	137 156 92	137 196 28	228 18 151	107 217 119	160 206 3	88 15 62	250 246 193	182 61 115	105 28 62	76 242 83	178 36 246	232 203 1	33 120 217	134 92 54	160 162 41	229 37 13	100 49 86	135 35 215	76 97 85	145 133 165	176 206 90	202 41 22	110 29 250	149 134 191	140 124 108	88 105 100	108 150 106	188 172 113	138 91 223	166 46 152	188 115 129	35 231 185	247 25 223	37 162 132	186 108 192	211 187 155	81 113 151	138 53 76	195 25 52	48 238 143	173 16 139	227 167 169	111 80 205	212 154 243	254 242 121	81 243 93	63 138 62	
93 203 47	11 130 232	152 186 17	253 188 16	1 64 212	250 205 187	217 92 32	242 243 46	216 211 245	104 200 212	163 97 76	131 30 117	94 175 58	90 24 198	32 45 151	88 39 208	203 96 155	156 74 139	103 212 230	93 229 0	241 193 171	75 190 250	96 172 5	53 40 172	74 248 183	203 26 20	53 13 193	101 12 230	59 25 183	36 198 185	106 134 73	144 64 122	218 202 11	236 123 126	73 9 72	48 231 108	74 45 116	191 45 244	214 92 141	129 205 143	32 70 204	118 43 66	246 175 222	41 62 207	140 5 222	211 129 2	34 37 242	97 140 49	170 183 204	86 243 73	
131 52 67	21 37 105	81 189 141	174 119 209	16 202 140	117 174 170	112 138 55	23 184 120	49 211 187	26 168 143	13 250 32	171 46 187	253 93 95	12 247 225	165 91 6	25 124 71	45 55 252	121 55 127	1 45 26	155 188 237	248 74 234	135 223 220	15 195 136	66 235 51	202 128 161	153 202 44	249 210 40	54 7 36	39 30 226	191 183 5	188 94 18	7 58 13	107 117 186	94 79 156	216 225 113	49 25 170	206 174 13	196 152 67	92 180 94	141 185 87	17 247 119	211 33 113	148 100 226	7 175 7	24 147 145	85 119 205	170 144 25	232 62 83	115 244 118	48 135 220	
182 6 161	126 45 172	120 134 97	29 124 187	107 24 190	9 109 141	196 234 69	71 57 225	181 199 234	191 5 161	203 109 243	250 240 33	118 125 181	155 108 83	77 97 233	76 115 51	123 58 14	86 109 241	232 219 201	107 139 70	29 101 174	16 192 54	200 202 242	215 1 45	132 159 223	165 124 156	166 190 150	95 140 16	92 116 203	166 29 146	106 41 1	119 48 230	247 79 209	245 198 209	112 22 184	201 229 61	63 241 155	134 79 109	123 107 67	219 138 50	44 68 196	251 166 22	117 178 37	128 49 121	247 40 161	142 131 148	29 160 99	206 2 69	163 179 228	95 248 15	
209 225 175	186 145 17	117 254 234	9 81 184	63 52 202	56 1 101	47 25 133	148 94 38	113 145 250	63 106 209	151 23 206	218 154 210	170 184 48	69 236 40	61 27 194	84 110 44	231 246 186	166 107 168	113 93 62	75 151 130	227 48 139	60 113 207	89 238 210	110 229 41	59 72 34	46 181 89	194 240 224	99 104 146	223 92 191	216 30 151	80 137 120	93 205 72	48 119 140	138 143 7	243 15 38	153 49 193	63 27 239	112 224 128	23 237 144	38 196 90	31 196 167	49 30 215	178 211 117	249 133 181	163 246 5	241 238 20	200 132 46	32 78 225	64 117 184	3 51 236	
153 153 221	89 35 67	71 64 50	175 13 85	38 62 164	105 191 78	237 20 101	46 240 86	0 246 100	78 226 7	243 45 203	62 212 134	76 121 236	212 16 167	73 129 250	179 45 221	221 68 81	229 50 178	245 194 74	135 96 40	69 7 52	15 188 26	202 65 216	79 90 31	59 216 55	225 205 148	241 90 124	235 30 195	191 60 125	7 225 30	213 182 54	210 133 222	28 193 168	235 172 154	210 100 117	118 45 63	191 155 127	185 231 53	21 40 126	170 93 93	87 13 190	8 178 19	145 232 187	215 163 251	68 77 251	5 123 225	29 10 219	61 148 242	93 89 26	208 174 4	
218 242 47	28 233 18	67 27 232	64 146 193	173 77 213	108 208 52	178 99 77	28 133 148	136 79 148	1 248 41	214 139 229	27 2 170	123 245 16	59 243 35	180 85 227	4 48 235	246 107 130	160 104 143	172 23 206	15 93 190	56 198 249	133 239 80	92 57 129	12 12 212	173 46 43	43 127 243	57 199 213	192 237 118	155 105 52	230 167 163	8 92 55	177 83 219	81 123 16	201 204 34	141 202 70	155 235 44	255 255 255	255 255 255	139 148 88	115 34 56	196 98 91	193 174 77	73 211 24	18 40 17	86 227 169	0 253 25	123 7 88	119 105 31	191 37 29	140 191 138	
122 159 157	126 208 230	36 213 2	92 177 12	189 33 230	47 178 132	154 205 185	135 243 47	27 79 162	155 133 122	181 60 196	38 246 181	65 3 92	246 247 231	5 174 133	52 223 204	253 14 221	68 96 25	45 96 117	151 31 25	4 176 38	166 176 81	67 165 56	248 206 189	211 25 168	73 36 217	219 101 10	39 3 152	17 104 84	202 31 132	218 241 240	196 166 169	69 121 165	213 247 15	249 165 247	230 189 108	194 232 249	201 50 163	194 139 219	94 53 240	86 253 68	94 68 212	21 15 233	38 115 168	208 30 101	220 122 160	222 68 100	115 15 26	114 74 159	173 28 190	
148 128 169	236 76 222	244 107 75	21 100 114	54 242 216	251 193 55	168 16 145	115 249 191	139 207 99	114 248 216	36 196 20	121 148 58	110 136 205	243 23 188	40 142 130	194 114 30	241 46 196	196 112 39	190 195 239	206 220 47	70 242 190	246 86 88	47 3 15	68 29 188	60 142 7	192 23 46	66 63 96	73 115 33	117 34 231	53 187 179	12 117 22	97 208 244	168 239 243	243 111 88	228 76 196	37 99 57	180 11 144	218 168 182	240 234 130	220 151 63	226 44 18	160 163 181	194 243 74	195 245 203	30 165 48	191 203 31	133 248 147	224 100 136	225 5 126	182 169 110	
55 152 51	69 80 197	124 24 135	83 8 108	31 210 99	62 211 103	205 5 129	195 75 117	152 31 35	153 194 248	51 139 239	238 160 53	188 11 111	227 120 234	152 5 223	226 222 154	137 217 122	151 71 46	54 33 243	223 59 16	11 156 157	140 9 185	230 46 12	119 135 54	254 10 73	140 106 134	211 80 213	117 216 19	56 154 114	110 241 26	213 17 98	213 131 229	70 170 123	214 129 62	187 145 175	0 238 165	106 22 236	116 119 84	169 253 10	90 215 51	51 140 241	168 205 248	107 71 239	162 109 216	239 124 235	153 24 123	249 11 147	70 154 105	149 142 197	141 34 30	
29 141 141	75 149 37	113 152 59	55 196 25	127 179 32	217 161 215	141 59 141	132 196 84	112 109 87	181 213 117	134 118 35	32 1 251	127 45 224	46 104 180	146 125 157	203 230 237	195 175 234	225 20 106	171 166 188	146 129 68	246 206 1	243 135 221	146 102 5	210 247 130	211 251 120	158 92 33	175 177 220	151 71 163	15 27 22	169 218 129	173 39 213	76 1 211	111 95 215	113 172 219	92 16 17	126 66 19	209 247 151	109 54 76	200 52 80	38 194 119	52 219 242	76 116 114	143 3 207	26 145 121	130 100 164	117 166 83	77 135 180	226 2 193	89 19 39	100 96 204	
12 65 226	25 206 214	202 138 133	26 149 94	241 37 228	235 184 171	53 14 182	245 211 74	166 103 115	220 90 143	188 4 80	125 176 128	26 52 163	175 252 191	82 225 12	121 76 213	247 142 192	96 136 81	108 156 32	156 98 236	102 62 69	24 8 195	7 146 155	162 206 44	50 104 42	30 74 88	213 110 196	179 185 129	80 155 51	109 90 146	179 94 250	244 24 232	176 217 95	181 225 148	224 39 82	114 236 175	72 122 39	54 104 66	5 5 197	161 234 176	25 242 172	164 224 109	199 164 141	80 220 114	143 215 175	29 16 230	142 27 60	35 133 249	171 91 5	70 166 216	
207 179 103	141 126 239	206 90 136	115 32 177	89 58 62	33 216 239	233 57 44	155 229 65	200 116 227	129 97 243	88 254 44	148 151 166	136 121 178	245 209 91	8 71 168	188 91 39	136 103 57	139 243 184	26 204 231	91 201 116	239 192 25	182 80 157	26 162 86	116 33 74	107 95 7	4 79 20	145 191 89	167 136 203	125 50 63	44 138 66	17 68 128	113 44 8	44 4 145	71 76 150	244 62 194	200 28 108	58 97 188	248 247 2	95 245 152	202 18 149	198 53 116	182 163 182	165 113 129	133 165 185	208 29 204	106 138 182	109 71 177	101 113 4	13 95 204	36 1 76	
35 245 251	252 35 185	53 14 161	176 117 248	17 174 59	219 40 30	28 138 187	165 162 22	228 11 16	160 57 71	125 214 225	34 132 57	80 213 214	138 18 233	178 254 203	56 207 201	90 10 183	212 93 134	9 170 140	226 34 174	61 80 131	90 4 249	161 207 229	179 163 70	117 208 19	187 247 130	23 137 16	12 160 251	163 201 201	234 193 135	223 140 42	147 54 146	229 140 228	7 68 173	143 5 48	5 236 252	98 118 120	139 12 94	196 181 228	128 16 176	252 137 89	241 141 209	219 35 126	192 101 230	40 25 111	101 127 73	162 3 163	178 110 21	14 154 204	210 142 119	
228 233 45	161 82 237	0 232 159	94 159 123	238 235 71	62 187 95	220 113 86	48 248 95	69 8 213	88 122 201	31 245 15	164 187 25	174 4 96	18 242 184	24 146 49	125 85 216	145 240 77	16 94 190	229 41 58	204 216 75	47 183 55	158 198 71	45 186 111	193 119 54	23 243 188	252 48 125	157 241 9	15 98 130	69 241 73	134 10 92	56 175 239	88 52 69	166 159 56	222 65 135	84 133 231	174 185 19	192 48 159	111 124 47	9 58 104	107 224 166	96 92 216	12 101 94	224 113 206	15 106 4	167 226 49	146 196 66	90 132 193	204 109 115	129 22 118	80 118 191	
114 205 178	154 118 50	86 209 80	171 147 9	238 157 225	99 16 8	253 131 229	162 137 207	209 129 9	5 52 181	188 178 68	85 153 33	0 156 242	86 59 164	203 206 180	220 167 14	164 97 171	233 218 34	172 133 157	60 225 218	185 179 114	50 14 93	102 175 83	69 154 135	51 193 207	77 56 47	238 75 238	139 14 127	245 7 202	141 180 32	21 172 23	189 3 45	92 39 64	94 25 151	47 46 196	18 68 176	61 124 116	130 74 118	111 19 101	58 82 139	205 51 56	36 185 131	89 215 14	4 66 192	223 194 154	75 186 9	249 240 113	180 41 138	192 125 120	35 43 38	
