P3
50 47
255
201 198 194	198 194 187	198 194 187	198 200 197	196 197 197	198 200 197	198 200 197	198 200 197	198 200 197	200 199 201	202 202 202	202 202 202	200 199 201	202 202 202	200 199 201	202 202 202	202 202 202	202 202 202	206 209 207	202 202 202	206 209 207	217 218 218	217 218 218	215 216 215	214 216 218	217 218 218	214 216 218	206 210 212	205 206 209	202 202 202	202 202 202	197 201 204	202 201 198	200 199 201	198 200 197	198 200 197	200 199 201	198 200 197	198 200 197	198 200 197	200 199 201	200 199 201	200 199 201	197 197 201	200 199 201	196 197 197	198 200 197	197 197 201	196 197 197	198 200 197	
196 197 197	201 198 194	201 198 194	198 200 197	201 198 194	201 198 194	200 199 201	198 200 197	202 202 202	198 200 197	202 202 202	202 202 202	202 202 202	202 202 202	206 209 207	202 202 202	202 202 202	202 202 202	211 211 212	217 218 218	189 194 201	103 103 103	62 60 60	53 51 49	36 35 34	62 60 60	98 95 93	136 137 140	212 214 217	212 214 217	206 209 207	200 199 201	200 199 201	200 199 201	200 199 201	200 199 201	197 201 204	200 199 201	200 199 201	198 200 197	200 199 201	200 199 201	198 200 197	200 199 201	196 197 197	200 199 201	196 197 197	200 199 201	196 197 197	196 197 197	
198 194 187	196 197 197	198 194 187	196 197 197	196 197 197	198 200 197	202 201 198	202 201 198	200 199 201	202 202 202	202 202 202	202 202 202	202 202 202	202 202 202	202 202 202	202 202 202	211 211 212	217 218 218	136 137 140	70 64 57	29 22 21	33 27 23	29 22 21	29 27 25	35 33 30	29 26 22	22 21 18	22 21 18	36 35 34	116 116 116	212 214 217	211 211 212	206 209 207	200 199 201	200 199 201	200 199 201	201 198 194	201 198 194	200 199 201	200 199 201	198 200 197	200 199 201	200 199 201	200 199 201	197 197 201	198 200 197	200 199 201	200 199 201	197 201 204	197 197 201	
201 198 194	201 198 194	198 200 197	201 198 194	201 198 194	198 200 197	198 200 197	202 201 198	198 200 197	202 202 202	202 202 202	202 202 202	202 202 202	206 209 207	206 209 207	215 216 215	198 200 197	62 60 60	29 26 22	34 29 27	29 26 22	29 27 25	42 37 34	34 29 27	29 27 25	29 26 22	35 33 30	29 22 21	22 21 18	22 21 18	36 35 34	153 157 161	217 218 218	200 199 201	200 199 201	198 200 197	200 199 201	197 201 204	200 199 201	198 200 197	200 199 201	200 199 201	200 199 201	197 201 204	200 199 201	196 197 197	200 199 201	198 200 197	196 197 197	197 197 201	
201 196 189	201 198 194	201 198 194	202 201 198	196 197 197	200 199 201	201 198 194	200 199 201	202 202 202	202 202 202	202 202 202	202 202 202	209 206 206	206 209 207	215 216 215	170 172 175	34 29 27	50 39 35	35 33 30	29 27 25	33 27 23	35 33 30	50 39 35	42 37 34	43 42 42	53 51 47	43 42 42	29 27 25	35 33 30	36 35 34	42 37 34	34 29 27	132 132 133	212 214 217	197 201 204	200 199 201	200 199 201	198 200 197	198 200 197	202 201 198	200 199 201	197 201 204	200 199 201	200 199 201	202 202 202	200 199 201	197 197 201	198 200 197	196 197 197	200 199 201	
201 198 194	201 196 189	198 200 197	198 194 187	201 198 194	201 198 194	202 202 202	200 199 201	202 202 202	202 202 202	206 209 207	202 201 198	206 209 207	211 211 212	187 192 191	33 27 23	52 38 28	51 44 42	46 35 30	51 44 42	35 33 30	50 39 35	53 51 49	53 51 49	53 51 47	50 39 35	59 45 38	53 42 38	43 42 42	53 42 38	45 40 39	45 40 39	36 35 34	116 116 116	217 218 218	202 201 198	200 199 201	200 199 201	200 199 201	200 199 201	198 200 197	200 199 201	200 199 201	201 198 194	200 199 201	197 201 204	200 199 201	200 199 201	200 199 201	200 199 201	
198 200 197	201 198 194	202 201 198	198 200 197	201 198 194	202 201 198	202 202 202	202 202 202	202 202 202	202 201 198	209 206 206	202 202 202	202 202 202	215 216 215	61 55 51	59 45 38	53 42 38	67 45 36	59 45 38	67 45 36	81 59 51	90 68 55	70 59 51	69 50 42	78 55 44	117 84 75	133 108 90	140 107 92	116 79 69	114 78 60	101 69 58	81 59 51	69 50 42	61 55 51	132 132 133	212 214 217	200 199 201	200 199 201	197 201 204	202 201 198	200 199 201	202 201 198	200 199 201	197 201 204	200 199 201	201 198 194	197 201 204	200 199 201	200 199 201	200 199 201	
196 197 197	201 198 194	198 194 187	202 201 198	201 198 194	202 201 198	202 201 198	202 201 198	202 201 198	202 202 202	202 202 202	206 209 207	215 216 215	132 132 133	53 42 38	61 55 51	67 45 36	130 85 67	108 69 52	163 121 99	130 85 67	146 100 83	172 124 101	174 129 107	178 136 118	178 132 123	178 131 116	179 125 106	163 121 99	139 102 83	140 97 77	124 85 74	81 59 51	62 60 60	62 60 60	198 200 197	206 210 212	200 199 201	202 202 202	200 199 201	200 199 201	200 199 201	197 201 204	200 199 201	202 202 202	197 201 204	200 199 201	200 199 201	196 197 197	200 199 201	
198 194 187	198 200 197	201 198 194	198 194 187	202 201 198	202 201 198	202 201 198	202 202 202	202 202 202	202 201 198	202 202 202	206 209 207	215 216 215	75 66 60	70 59 51	81 59 51	143 86 61	158 103 73	180 130 95	189 137 107	187 131 100	174 129 107	195 141 123	202 149 125	195 147 132	187 139 124	187 139 124	174 129 107	179 125 106	164 116 92	148 100 74	138 93 69	111 68 57	53 51 49	72 69 69	148 147 151	206 210 212	197 201 204	200 199 201	200 199 201	198 200 197	200 199 201	202 202 202	202 201 198	197 201 204	200 199 201	200 199 201	200 199 201	197 201 204	196 197 197	
198 200 197	201 198 194	202 201 198	198 200 197	202 201 198	202 201 198	202 201 198	202 201 198	202 201 198	206 209 207	202 202 202	211 211 212	167 167 165	70 59 51	61 55 51	133 84 60	178 119 87	180 130 95	197 146 115	197 146 115	195 147 132	197 157 146	195 155 141	196 160 147	197 157 146	195 155 141	195 155 141	188 141 131	174 129 107	162 117 99	148 106 84	140 104 72	121 83 60	69 50 42	53 51 49	103 103 103	217 218 218	200 199 201	202 202 202	200 199 201	202 202 202	200 199 201	200 199 201	197 201 204	198 200 197	200 199 201	202 201 198	197 201 204	200 199 201	200 199 201	
198 200 197	198 200 197	198 200 197	202 201 198	198 200 197	202 201 198	202 201 198	209 204 197	202 202 202	202 202 202	206 209 207	211 211 212	131 129 125	69 50 42	89 66 50	167 116 84	178 119 87	187 131 100	197 146 115	201 152 126	203 152 137	199 164 153	199 164 153	197 157 146	195 155 141	197 157 146	199 164 153	187 145 131	181 137 121	163 121 99	164 116 92	146 100 83	130 85 67	83 60 43	43 42 42	43 42 42	206 209 207	205 206 209	200 199 201	200 199 201	197 201 204	202 202 202	202 202 202	200 199 201	200 199 201	200 199 201	200 199 201	200 199 201	200 199 201	200 199 201	
201 196 189	201 196 189	201 198 194	202 201 198	202 201 198	202 201 198	202 202 202	202 202 202	202 202 202	202 202 202	209 206 206	217 218 218	103 103 103	69 50 42	108 76 60	156 118 89	180 130 95	187 131 100	201 152 126	201 152 126	201 152 126	195 155 141	197 157 146	197 157 146	196 148 139	178 136 118	189 154 148	187 139 124	181 137 121	173 131 114	169 132 110	148 106 84	139 95 75	90 68 55	43 42 42	35 33 30	170 172 175	209 206 206	202 202 202	202 202 202	202 201 198	202 202 202	200 199 201	200 199 201	200 199 201	200 199 201	200 199 201	200 199 201	200 199 201	200 199 201	
198 200 197	198 200 197	201 198 194	198 200 197	198 200 197	202 201 198	202 202 202	202 202 202	202 202 202	209 206 206	206 209 207	217 218 218	116 116 116	75 66 60	83 60 43	147 99 68	180 130 95	189 137 107	197 146 115	201 152 126	202 149 125	194 142 132	195 147 132	197 147 124	194 142 132	187 133 122	187 133 122	187 133 122	173 131 114	178 131 116	164 122 106	148 106 84	140 97 77	82 54 43	53 51 49	43 42 42	136 137 140	211 211 212	202 202 202	200 199 201	200 199 201	202 202 202	197 201 204	200 199 201	200 199 201	200 199 201	200 199 201	202 202 202	200 199 201	200 199 201	
198 200 197	201 196 189	201 198 194	201 198 194	198 200 197	200 199 201	202 201 198	202 202 202	202 202 202	202 202 202	202 202 202	215 216 215	116 116 116	75 66 60	69 50 42	149 105 76	180 130 95	182 137 103	201 152 126	203 152 137	202 147 132	203 152 137	194 142 132	202 147 132	187 133 122	196 148 139	196 148 139	189 147 139	178 132 123	162 117 99	155 116 98	139 105 82	139 102 83	78 55 44	43 42 42	63 65 63	119 118 119	211 211 212	202 202 202	200 199 201	200 199 201	200 199 201	200 199 201	202 202 202	200 199 201	200 199 201	200 199 201	200 199 201	197 201 204	198 200 197	
198 194 187	201 196 189	198 200 197	198 200 197	201 198 194	198 200 197	202 202 202	202 202 202	202 202 202	209 204 197	202 202 202	215 216 215	98 95 93	75 66 60	59 45 38	167 116 84	172 125 94	182 137 103	174 129 107	150 121 116	123 92 84	155 107 104	173 131 114	187 133 122	178 126 113	184 137 134	166 121 117	112 85 83	116 116 116	136 115 105	139 101 90	139 102 83	140 97 77	97 67 52	45 40 39	62 60 60	119 118 119	211 211 212	198 200 197	202 202 202	200 199 201	200 199 201	197 201 204	200 199 201	200 199 201	200 199 201	200 199 201	200 199 201	200 199 201	200 199 201	
202 201 198	198 200 197	201 198 194	202 201 198	202 201 198	201 198 194	200 199 201	202 201 198	202 202 202	202 202 202	209 206 206	215 216 215	103 103 103	70 59 51	74 45 32	172 125 94	165 123 93	129 97 78	116 84 68	138 106 98	124 85 74	111 68 57	116 79 69	172 124 101	164 122 106	116 79 69	108 76 60	122 68 58	147 108 98	136 92 85	106 82 75	118 90 76	123 92 84	101 69 58	36 35 34	43 42 42	148 147 151	206 210 212	197 201 204	197 201 204	200 199 201	200 199 201	201 198 194	197 201 204	197 201 204	200 199 201	197 197 201	197 197 201	200 199 201	200 199 201	
198 200 197	201 198 194	198 200 197	198 200 197	201 198 194	200 199 201	201 198 194	206 209 207	202 201 198	206 209 207	202 202 202	215 216 215	142 115 92	53 51 47	78 55 44	182 137 103	149 115 92	134 106 84	124 89 69	45 40 39	65 59 59	155 107 97	155 109 92	171 117 92	171 117 92	131 93 75	150 106 92	136 115 105	29 22 21	86 72 69	116 79 69	125 99 86	130 100 89	114 78 60	36 35 34	29 26 22	116 84 68	197 201 204	192 191 197	200 199 201	192 191 197	200 199 201	200 199 201	197 197 201	196 197 197	196 197 197	196 197 197	200 199 201	200 199 201	198 200 197	
196 197 197	201 198 194	198 200 197	201 198 194	202 201 198	198 200 197	202 201 198	202 201 198	202 202 202	202 201 198	202 202 202	206 210 212	178 132 123	74 45 32	97 67 52	182 137 103	172 124 101	147 99 68	172 118 97	139 101 90	156 122 114	163 118 113	162 104 77	187 123 97	170 108 94	123 76 59	163 118 113	166 121 117	134 105 100	150 106 92	131 84 76	139 95 75	142 115 92	121 86 67	29 27 25	108 76 60	155 107 97	187 190 195	198 204 211	197 197 201	200 199 201	196 197 197	197 197 201	197 197 201	197 197 201	197 197 201	196 197 197	197 197 201	197 197 201	200 199 201	
201 198 194	201 198 194	198 200 197	201 198 194	202 201 198	198 200 197	200 199 201	200 199 201	202 201 198	202 202 202	202 201 198	206 210 212	186 148 137	133 84 60	114 78 60	182 137 103	182 137 103	180 131 108	187 133 122	196 148 139	184 137 134	189 125 106	165 110 83	187 123 97	170 108 94	122 68 58	150 106 92	166 121 117	186 148 137	170 132 124	156 122 114	152 120 106	155 116 98	131 93 75	52 38 28	150 106 92	178 132 123	197 178 180	198 204 211	197 197 201	197 201 204	192 191 197	192 191 197	197 197 201	197 197 201	197 197 201	192 191 197	197 197 201	196 197 197	196 197 197	
198 194 187	201 198 194	201 198 194	198 200 197	201 198 194	201 198 194	202 201 198	202 201 198	202 202 202	202 201 198	202 202 202	206 210 212	187 145 131	179 125 106	133 84 60	177 130 99	187 147 121	195 147 132	187 145 131	187 147 121	188 133 107	194 132 109	168 109 87	194 132 109	178 126 113	123 76 59	148 106 84	170 124 108	166 121 117	188 141 131	188 141 131	171 138 121	149 115 92	121 86 67	110 83 67	164 122 106	166 121 117	183 187 193	197 197 201	197 201 204	196 197 197	197 197 201	192 191 197	197 197 201	197 197 201	197 197 201	197 197 201	197 197 201	197 197 201	197 197 201	
201 198 194	201 198 194	201 198 194	196 197 197	201 198 194	198 200 197	198 200 197	202 201 198	202 201 198	202 202 202	202 202 202	206 209 207	181 169 168	188 141 131	163 121 99	177 130 99	187 138 116	201 152 126	197 139 116	194 132 109	202 149 125	181 124 101	165 110 83	196 137 122	187 119 114	130 85 67	131 84 76	181 137 121	171 125 115	178 126 113	187 139 124	164 122 106	149 115 92	116 84 68	130 100 89	188 141 131	117 84 75	198 204 211	197 197 201	197 197 201	197 197 201	187 190 195	197 197 201	197 197 201	197 197 201	197 197 201	187 190 195	197 201 204	197 197 201	187 190 195	
201 198 194	201 198 194	201 198 194	201 198 194	201 198 194	202 201 198	202 201 198	202 201 198	202 202 202	202 202 202	202 201 198	209 206 206	194 188 186	212 150 142	177 130 99	156 123 101	187 131 100	197 139 116	202 149 125	196 148 139	168 118 107	181 124 101	178 126 113	203 152 137	203 154 162	146 100 83	146 100 83	155 116 98	186 148 137	171 125 115	173 131 114	150 106 92	142 115 92	107 80 63	134 105 100	184 137 134	152 141 141	205 206 209	192 191 197	197 197 201	196 197 197	197 197 201	197 197 201	196 197 197	197 197 201	197 197 201	192 191 197	197 201 204	197 197 201	197 197 201	
198 200 197	198 200 197	198 194 187	198 200 197	198 200 197	202 201 198	202 201 198	202 201 198	202 201 198	202 201 198	202 202 202	206 209 207	189 194 201	180 131 108	177 130 99	165 123 93	177 130 99	180 131 108	197 147 124	171 125 115	186 131 114	164 116 92	131 84 76	147 108 98	147 115 107	124 85 74	131 84 76	163 118 113	166 121 117	178 131 116	162 117 99	139 102 83	142 115 92	110 83 67	138 106 98	142 84 75	183 187 193	197 197 201	197 197 201	197 197 201	197 197 201	197 197 201	197 197 201	192 191 197	197 197 201	197 197 201	192 191 197	197 197 201	197 197 201	197 197 201	
198 194 187	198 194 187	201 198 194	201 198 194	198 194 187	202 201 198	198 200 197	202 202 202	202 201 198	202 202 202	198 200 197	202 201 198	206 210 212	171 138 121	187 147 121	149 115 92	177 130 99	177 130 99	178 132 123	181 137 121	172 124 101	163 121 99	155 109 92	130 100 89	123 92 84	124 85 74	131 93 75	133 108 90	173 131 114	162 117 99	156 123 101	130 100 84	140 107 92	108 76 60	156 122 114	123 92 84	198 204 211	197 197 201	197 197 201	197 201 204	197 197 201	197 197 201	187 190 195	197 197 201	192 191 197	197 197 201	197 197 201	197 197 201	187 190 195	197 197 201	
202 201 198	198 194 187	198 194 187	198 200 197	198 200 197	201 198 194	198 200 197	202 201 198	202 201 198	202 201 198	202 201 198	202 202 202	206 209 207	175 162 156	180 131 108	149 115 92	165 123 93	169 132 110	178 131 116	169 132 110	155 116 98	168 118 107	168 118 107	167 138 134	167 138 134	139 101 90	136 92 85	123 92 84	136 115 105	147 108 98	157 123 107	134 106 84	125 98 69	106 82 75	162 117 99	152 141 141	202 202 202	197 201 204	197 197 201	192 191 197	196 197 197	197 197 201	197 201 204	192 191 197	197 197 201	197 197 201	197 197 201	196 197 197	197 197 201	197 197 201	
201 198 194	202 201 198	201 198 194	201 198 194	201 196 189	202 201 198	198 200 197	198 200 197	202 202 202	202 201 198	202 201 198	202 202 202	202 202 202	196 197 197	119 88 58	140 104 72	149 115 92	169 132 110	170 124 108	152 120 106	108 76 60	131 84 76	136 92 85	154 91 91	154 91 91	136 92 85	117 84 75	101 69 58	134 105 100	147 115 107	152 120 106	133 108 90	124 93 76	83 60 43	52 38 28	172 177 181	197 201 204	197 201 204	197 197 201	196 197 197	197 197 201	196 197 197	197 197 201	197 201 204	196 197 197	196 197 197	189 194 201	196 197 197	196 197 197	187 190 195	
198 194 187	201 198 194	201 198 194	201 198 194	196 197 197	201 198 194	201 198 194	201 198 194	202 202 202	202 201 198	202 202 202	202 201 198	202 202 202	209 206 206	212 214 217	156 134 126	148 106 84	169 132 110	169 132 110	149 115 92	150 90 72	119 57 59	139 101 90	156 134 126	150 121 116	136 92 85	119 57 59	136 92 85	149 113 100	156 134 126	133 108 90	133 108 90	110 83 67	131 129 125	198 204 211	197 201 204	197 201 204	197 201 204	197 197 201	197 197 201	197 197 201	197 197 201	197 197 201	187 190 195	197 197 201	197 197 201	197 197 201	196 197 197	197 197 201	196 197 197	
198 194 187	202 201 198	198 194 187	201 198 194	198 194 187	201 198 194	201 198 194	202 201 198	202 201 198	202 201 198	202 201 198	202 202 202	202 201 198	202 202 202	206 209 207	181 169 168	140 104 72	142 115 92	163 121 99	164 122 106	172 118 97	164 95 77	181 105 105	187 119 114	181 105 105	154 91 91	131 77 62	155 107 104	133 108 90	133 108 90	133 108 90	125 99 86	89 66 50	170 172 175	202 202 202	197 197 201	197 197 201	197 197 201	196 197 197	197 197 201	197 201 204	196 197 197	197 197 201	197 197 201	197 197 201	192 191 197	196 197 197	192 191 197	187 190 195	197 197 201	
201 198 194	201 198 194	201 198 194	201 198 194	198 200 197	198 200 197	201 198 194	202 201 198	200 199 201	200 199 201	202 201 198	200 199 201	202 201 198	202 202 202	202 202 202	211 211 212	125 98 69	142 115 92	149 115 92	156 118 89	163 121 99	155 115 92	130 100 84	125 99 86	130 100 89	125 99 86	140 107 92	147 108 98	125 99 86	118 90 76	142 115 92	106 82 75	112 85 83	206 210 212	197 197 201	197 197 201	197 197 201	197 197 201	197 197 201	196 197 197	197 197 201	197 197 201	197 197 201	192 191 197	197 197 201	197 197 201	196 197 197	197 197 201	196 197 197	192 191 197	
198 194 187	201 198 194	198 194 187	201 198 194	198 194 187	198 200 197	201 196 189	198 200 197	201 198 194	202 201 198	202 201 198	202 201 198	202 201 198	202 202 202	202 201 198	206 209 207	181 178 175	147 99 68	156 118 89	156 118 89	171 117 92	163 121 99	163 118 113	147 115 107	150 121 116	155 107 104	149 113 100	133 108 90	124 93 76	133 108 90	125 99 86	101 74 59	125 99 86	206 210 212	196 197 197	197 197 201	196 197 197	197 197 201	196 197 197	197 197 201	197 197 201	197 197 201	197 201 204	197 197 201	197 197 201	197 197 201	187 190 195	196 197 197	197 197 201	187 190 195	
201 198 194	201 198 194	201 198 194	201 196 189	201 198 194	198 200 197	202 201 198	201 198 194	198 200 197	198 200 197	202 201 198	202 201 198	202 201 198	202 201 198	202 201 198	202 202 202	202 202 202	147 99 68	138 93 69	156 118 89	162 117 99	174 129 107	178 126 113	184 137 134	170 132 124	163 118 113	140 107 92	130 100 84	116 84 68	124 93 76	101 74 59	123 76 59	124 89 69	197 201 204	197 197 201	196 197 197	197 197 201	197 197 201	197 197 201	196 197 197	196 197 197	196 197 197	192 191 197	197 197 201	196 197 197	187 190 195	192 191 197	192 191 197	187 190 195	197 197 201	
201 196 189	201 196 189	201 198 194	201 196 189	201 196 189	198 194 187	201 198 194	201 198 194	201 198 194	202 201 198	202 201 198	202 201 198	202 201 198	202 201 198	202 202 202	202 201 198	198 194 187	158 103 73	147 99 68	119 88 58	149 115 92	149 115 92	170 124 108	171 138 121	170 132 124	140 107 92	139 102 83	107 80 63	101 74 59	97 67 52	121 83 60	133 84 60	114 78 60	181 185 190	190 193 197	197 197 201	196 197 197	190 193 197	196 197 197	200 199 201	187 190 195	197 197 201	192 191 197	196 197 197	196 197 197	187 190 195	196 197 197	192 191 197	197 197 201	187 190 195	
198 194 187	198 194 187	201 198 194	201 198 194	202 201 198	201 196 189	202 201 198	202 201 198	202 201 198	201 196 189	202 201 198	202 201 198	202 201 198	202 201 198	202 201 198	198 194 187	188 179 180	158 103 73	165 110 83	149 105 76	117 75 54	121 83 60	124 89 69	139 102 83	124 93 76	114 78 60	114 78 60	108 76 60	108 76 60	121 86 67	138 93 69	138 93 69	123 76 59	148 147 151	187 187 189	197 201 204	196 197 197	196 197 197	197 197 201	197 197 201	196 197 197	197 197 201	192 191 197	196 197 197	187 190 195	197 197 201	192 191 197	196 197 197	196 197 197	187 190 195	
201 198 194	201 196 189	201 198 194	201 196 189	201 196 189	201 198 194	198 200 197	198 194 187	202 201 198	198 200 197	201 196 189	202 201 198	202 201 198	202 201 198	198 194 187	181 178 175	182 175 177	165 110 83	165 110 83	164 116 92	149 105 76	139 105 82	124 93 76	124 89 69	129 97 78	139 105 82	134 106 84	121 86 67	114 78 60	139 102 83	148 106 84	138 93 69	133 84 60	106 82 75	187 190 195	180 182 187	197 197 201	200 199 201	196 197 197	197 197 201	196 197 197	187 190 195	197 197 201	197 197 201	196 197 197	187 190 195	196 197 197	187 190 195	187 190 195	196 197 197	
201 196 189	201 196 189	201 196 189	201 196 189	202 201 198	201 196 189	201 196 189	202 201 198	202 201 198	202 201 198	201 196 189	202 201 198	202 201 198	201 196 189	188 179 180	181 169 168	156 134 126	165 110 83	172 118 97	171 117 92	147 99 68	165 123 93	162 117 99	152 120 106	152 120 106	140 107 92	131 93 75	121 86 67	130 85 67	155 116 98	155 109 92	146 100 83	138 93 69	108 69 52	180 182 187	172 177 181	170 172 175	172 177 181	183 187 193	197 197 201	197 201 204	196 197 197	192 191 197	187 190 195	187 190 195	196 197 197	192 191 197	196 197 197	187 190 195	187 190 195	
198 194 187	198 194 187	201 196 189	201 198 194	202 201 198	201 196 189	201 196 189	198 200 197	201 196 189	202 201 198	202 201 198	202 201 198	202 201 198	198 194 187	188 179 180	142 126 121	178 119 87	171 117 92	172 118 97	181 124 101	172 125 94	149 105 76	163 121 99	170 124 108	147 115 107	147 115 107	140 107 92	130 85 67	155 109 92	173 131 114	155 109 92	155 109 92	139 95 75	111 64 47	189 194 201	172 177 181	175 179 185	180 182 187	175 179 185	171 173 178	180 182 187	192 191 197	196 197 197	197 197 201	196 197 197	196 197 197	187 190 195	192 191 197	196 197 197	190 193 197	
201 196 189	201 196 189	201 196 189	201 196 189	201 196 189	201 196 189	198 194 187	201 196 189	201 198 194	205 201 191	201 198 194	201 198 194	196 190 181	205 201 191	175 162 156	162 104 77	188 133 107	168 109 87	181 124 101	172 124 101	179 125 106	164 116 92	162 117 99	166 121 117	156 122 114	156 122 114	155 107 97	139 95 75	173 131 114	164 122 106	155 116 98	162 117 99	140 97 77	139 101 90	198 204 211	172 177 181	180 182 187	183 187 193	183 187 193	183 187 193	183 187 193	171 173 178	180 182 187	187 190 195	196 197 197	190 193 197	196 197 197	187 190 195	192 191 197	194 188 186	
201 196 189	201 196 189	201 196 189	201 196 189	201 196 189	201 196 189	201 196 189	202 201 198	201 198 194	205 201 191	201 196 189	201 196 189	201 196 189	205 201 191	169 151 150	179 125 106	187 131 100	171 117 92	180 131 108	177 130 99	177 130 99	172 118 97	174 129 107	178 132 123	178 132 123	181 137 121	163 118 113	153 102 89	178 131 116	170 124 108	164 122 106	163 121 99	153 102 89	169 151 150	197 201 204	170 172 175	175 179 185	183 187 193	187 190 195	183 187 193	183 187 193	183 187 193	183 187 193	183 187 193	180 182 187	187 190 195	196 197 197	192 191 197	187 192 191	190 193 197	
201 196 189	201 196 189	201 196 189	201 196 189	201 196 189	201 196 189	201 196 189	209 204 197	196 190 181	205 201 191	201 196 189	209 204 197	209 204 197	201 196 189	188 179 180	162 117 99	194 132 109	177 123 91	180 131 108	187 138 116	174 129 107	179 125 106	170 124 108	178 132 123	178 132 123	178 126 113	171 125 115	162 117 99	178 131 116	172 124 101	173 131 114	171 125 115	150 106 92	197 197 201	190 193 197	170 172 175	183 187 193	183 187 193	189 194 201	183 187 193	187 190 195	183 187 193	183 187 193	183 187 193	183 187 193	180 182 187	180 182 187	187 190 195	198 194 187	187 190 195	
194 188 186	201 196 189	201 196 189	201 196 189	201 198 194	201 196 189	198 194 187	198 194 187	201 198 194	202 201 198	201 198 194	209 204 197	209 204 197	201 196 189	211 211 212	167 138 134	189 137 107	177 130 99	187 138 116	187 138 116	180 131 108	180 131 108	187 133 122	181 137 121	170 132 124	181 137 121	184 137 134	170 124 108	170 124 108	164 122 106	173 131 114	170 124 108	167 138 134	202 202 202	181 185 190	172 177 181	183 187 193	183 187 193	187 190 195	187 190 195	187 190 195	187 190 195	187 190 195	187 190 195	187 190 195	181 185 190	180 182 187	175 179 185	185 183 188	187 190 195	
198 194 187	198 194 187	201 196 189	201 196 189	198 194 187	201 196 189	201 196 189	202 201 198	209 204 197	201 196 189	201 198 194	209 204 197	209 204 197	201 196 189	205 201 191	202 201 198	170 124 108	188 133 107	195 141 123	187 139 124	186 131 114	188 133 107	196 137 122	181 137 121	178 131 116	187 139 124	194 142 132	187 133 122	168 118 107	170 124 108	178 131 116	168 118 107	187 192 191	197 201 204	181 185 190	172 177 181	183 187 193	187 190 195	187 190 195	196 197 197	187 190 195	198 204 211	189 194 201	192 191 197	187 190 195	187 190 195	187 190 195	183 187 193	175 179 185	175 179 185	
196 190 181	201 196 189	198 194 187	201 196 189	201 196 189	201 196 189	205 201 191	202 201 198	209 204 197	201 198 194	201 198 194	201 198 194	209 204 197	209 204 197	196 190 181	209 206 206	182 175 177	181 124 101	202 149 125	202 149 125	187 138 116	188 133 107	196 137 122	178 126 113	178 131 116	195 147 132	195 141 123	196 137 122	172 118 97	172 118 97	170 108 94	188 179 180	201 198 194	201 198 194	180 182 187	180 182 187	187 190 195	190 193 197	190 193 197	187 187 189	183 187 193	187 190 195	189 194 201	187 190 195	197 201 204	187 190 195	192 191 197	187 190 195	180 182 187	175 179 185	
201 196 189	201 196 189	201 196 189	201 196 189	205 201 191	202 201 198	202 201 198	202 201 198	200 199 201	201 196 189	201 198 194	209 204 197	209 204 197	209 204 197	196 190 181	205 201 191	197 201 204	175 162 156	189 125 106	187 123 97	187 131 100	188 133 107	195 141 123	178 126 113	194 142 132	202 147 132	197 139 116	195 141 123	178 126 113	178 119 87	197 178 180	202 202 202	196 197 197	187 187 189	181 185 190	181 185 190	187 187 189	187 187 189	183 187 193	187 190 195	187 190 195	187 190 195	197 201 204	197 201 204	197 197 201	196 197 197	197 201 204	183 187 193	183 187 193	175 179 185	
196 190 181	196 190 181	201 196 189	209 204 197	202 201 198	202 201 198	202 201 198	202 201 198	209 206 206	194 188 186	196 190 181	209 204 197	209 204 197	209 204 197	205 201 191	205 201 191	209 206 206	201 198 194	188 179 180	189 125 106	189 125 106	194 132 109	197 139 116	186 131 114	187 123 97	194 132 109	195 131 114	196 137 122	187 119 114	195 155 141	200 199 201	175 179 185	181 185 190	190 193 197	189 194 201	190 193 197	187 190 195	190 193 197	197 197 201	187 190 195	187 190 195	187 190 195	189 194 201	197 201 204	197 197 201	197 201 204	192 191 197	183 187 193	190 193 197	175 179 185	
201 196 189	201 196 189	205 201 191	209 204 197	209 204 197	202 201 198	202 201 198	209 206 206	209 206 206	209 206 206	202 202 202	187 187 189	194 188 186	194 188 186	198 194 187	196 197 197	187 187 189	194 188 186	202 202 202	194 188 186	195 147 132	196 137 122	195 131 114	187 119 114	187 123 97	187 123 97	194 132 109	193 125 106	199 164 153	189 194 201	183 187 193	189 194 201	197 201 204	197 197 201	189 194 201	189 194 201	183 187 193	189 194 201	197 197 201	187 190 195	192 191 197	187 190 195	187 190 195	196 197 197	197 197 201	200 199 201	197 197 201	183 187 193	189 194 201	175 179 185	
205 201 191	205 201 191	202 201 198	202 201 198	202 202 202	202 202 202	202 201 198	209 206 206	209 206 206	202 202 202	209 206 206	202 201 198	192 191 197	198 200 197	190 193 197	200 199 201	200 199 201	187 190 195	181 185 190	180 182 187	187 190 195	187 187 189	189 154 148	195 131 114	189 125 106	189 125 106	193 125 106	196 148 139	187 190 195	187 190 195	189 194 201	198 204 211	189 194 201	197 197 201	197 197 201	190 193 197	187 190 195	197 197 201	197 197 201	192 191 197	192 191 197	197 197 201	187 190 195	197 197 201	197 197 201	205 206 209	192 191 197	183 187 193	197 201 204	175 179 185	
201 196 189	202 201 198	202 201 198	202 201 198	202 202 202	209 204 197	202 202 202	202 202 202	206 209 207	202 202 202	209 206 206	205 201 191	209 206 206	202 202 202	206 209 207	200 199 201	205 206 209	202 202 202	205 206 209	197 201 204	187 190 195	197 201 204	198 204 211	187 190 195	189 147 139	195 131 114	196 137 122	189 194 201	187 190 195	198 204 211	200 199 201	200 199 201	197 201 204	197 197 201	189 194 201	189 194 201	189 194 201	196 197 197	197 197 201	200 199 201	192 191 197	196 197 197	197 197 201	187 190 195	197 201 204	202 202 202	197 197 201	187 190 195	197 201 204	175 179 185	
